<mxfile host="app.diagrams.net" modified="2023-02-07T06:22:05.552Z" agent="5.0 (Windows NT 10.0; Win64; x64) AppleWebKit/537.36 (KHTML, like Gecko) Chrome/109.0.0.0 Safari/537.36" etag="1CfsoWd9U-a9_WIZDzY6" version="20.8.17" type="github" pages="3">
  <diagram name="페이지-1" id="_h7Gy3z50vnxJeNGeOW-">
    <mxGraphModel dx="1816" dy="549" grid="1" gridSize="10" guides="1" tooltips="1" connect="1" arrows="1" fold="1" page="1" pageScale="1" pageWidth="827" pageHeight="1169" math="0" shadow="0">
      <root>
        <mxCell id="0" />
        <mxCell id="1" parent="0" />
        <mxCell id="izvwOIkXbRAUqK3dt6Ee-2" value="DB" style="shape=cylinder3;whiteSpace=wrap;html=1;boundedLbl=1;backgroundOutline=1;size=15;" vertex="1" parent="1">
          <mxGeometry x="690" y="130" width="60" height="90" as="geometry" />
        </mxCell>
        <mxCell id="izvwOIkXbRAUqK3dt6Ee-3" value="DAO" style="rounded=0;whiteSpace=wrap;html=1;" vertex="1" parent="1">
          <mxGeometry x="540" y="155" width="120" height="60" as="geometry" />
        </mxCell>
        <mxCell id="izvwOIkXbRAUqK3dt6Ee-4" value="Service" style="rounded=0;whiteSpace=wrap;html=1;" vertex="1" parent="1">
          <mxGeometry x="400" y="155" width="120" height="60" as="geometry" />
        </mxCell>
        <mxCell id="izvwOIkXbRAUqK3dt6Ee-5" value="Controller" style="rounded=0;whiteSpace=wrap;html=1;" vertex="1" parent="1">
          <mxGeometry x="260" y="155" width="120" height="60" as="geometry" />
        </mxCell>
        <mxCell id="izvwOIkXbRAUqK3dt6Ee-6" value="JSP" style="rounded=0;whiteSpace=wrap;html=1;" vertex="1" parent="1">
          <mxGeometry x="40" y="280" width="120" height="60" as="geometry" />
        </mxCell>
        <mxCell id="izvwOIkXbRAUqK3dt6Ee-7" value="Displacher&amp;nbsp;&lt;br&gt;Servlet" style="rounded=0;whiteSpace=wrap;html=1;" vertex="1" parent="1">
          <mxGeometry x="110" y="155" width="120" height="60" as="geometry" />
        </mxCell>
        <mxCell id="izvwOIkXbRAUqK3dt6Ee-8" value="Internal&lt;br&gt;Resource&lt;br&gt;ViewResolver" style="rounded=0;whiteSpace=wrap;html=1;" vertex="1" parent="1">
          <mxGeometry x="240" y="280" width="120" height="60" as="geometry" />
        </mxCell>
        <mxCell id="izvwOIkXbRAUqK3dt6Ee-11" value="" style="endArrow=classic;html=1;rounded=0;" edge="1" parent="1" source="izvwOIkXbRAUqK3dt6Ee-7">
          <mxGeometry width="50" height="50" relative="1" as="geometry">
            <mxPoint x="230" y="235" as="sourcePoint" />
            <mxPoint x="300.71067811865476" y="185" as="targetPoint" />
          </mxGeometry>
        </mxCell>
        <mxCell id="izvwOIkXbRAUqK3dt6Ee-13" value="" style="endArrow=classic;html=1;rounded=0;" edge="1" parent="1">
          <mxGeometry width="50" height="50" relative="1" as="geometry">
            <mxPoint x="353.5" y="184.5" as="sourcePoint" />
            <mxPoint x="413.5" y="184.5" as="targetPoint" />
            <Array as="points" />
          </mxGeometry>
        </mxCell>
        <mxCell id="izvwOIkXbRAUqK3dt6Ee-14" value="" style="endArrow=classic;html=1;rounded=0;" edge="1" parent="1">
          <mxGeometry width="50" height="50" relative="1" as="geometry">
            <mxPoint x="500" y="184.5" as="sourcePoint" />
            <mxPoint x="556.5" y="185" as="targetPoint" />
            <Array as="points" />
          </mxGeometry>
        </mxCell>
        <mxCell id="izvwOIkXbRAUqK3dt6Ee-16" value="" style="endArrow=classic;html=1;rounded=0;" edge="1" parent="1">
          <mxGeometry width="50" height="50" relative="1" as="geometry">
            <mxPoint x="640" y="184.5" as="sourcePoint" />
            <mxPoint x="710" y="184.5" as="targetPoint" />
            <Array as="points" />
          </mxGeometry>
        </mxCell>
        <mxCell id="izvwOIkXbRAUqK3dt6Ee-17" value="" style="endArrow=classic;html=1;rounded=0;" edge="1" parent="1">
          <mxGeometry relative="1" as="geometry">
            <mxPoint x="700" y="200" as="sourcePoint" />
            <mxPoint x="650" y="200" as="targetPoint" />
          </mxGeometry>
        </mxCell>
        <mxCell id="izvwOIkXbRAUqK3dt6Ee-18" value="" style="shape=message;html=1;outlineConnect=0;" vertex="1" parent="izvwOIkXbRAUqK3dt6Ee-17">
          <mxGeometry width="20" height="14" relative="1" as="geometry">
            <mxPoint x="-5" y="-7" as="offset" />
          </mxGeometry>
        </mxCell>
        <mxCell id="izvwOIkXbRAUqK3dt6Ee-22" value="" style="endArrow=classic;html=1;rounded=0;" edge="1" parent="1">
          <mxGeometry relative="1" as="geometry">
            <mxPoint x="560" y="200" as="sourcePoint" />
            <mxPoint x="500" y="200" as="targetPoint" />
          </mxGeometry>
        </mxCell>
        <mxCell id="izvwOIkXbRAUqK3dt6Ee-23" value="" style="shape=message;html=1;outlineConnect=0;" vertex="1" parent="izvwOIkXbRAUqK3dt6Ee-22">
          <mxGeometry width="20" height="14" relative="1" as="geometry">
            <mxPoint x="-10" y="-7" as="offset" />
          </mxGeometry>
        </mxCell>
        <mxCell id="izvwOIkXbRAUqK3dt6Ee-24" value="" style="endArrow=classic;html=1;rounded=0;" edge="1" parent="1">
          <mxGeometry relative="1" as="geometry">
            <mxPoint x="410" y="200" as="sourcePoint" />
            <mxPoint x="350" y="200" as="targetPoint" />
          </mxGeometry>
        </mxCell>
        <mxCell id="izvwOIkXbRAUqK3dt6Ee-25" value="" style="shape=message;html=1;outlineConnect=0;" vertex="1" parent="izvwOIkXbRAUqK3dt6Ee-24">
          <mxGeometry width="20" height="14" relative="1" as="geometry">
            <mxPoint x="-10" y="-7" as="offset" />
          </mxGeometry>
        </mxCell>
        <mxCell id="izvwOIkXbRAUqK3dt6Ee-31" value="" style="endArrow=classic;html=1;rounded=0;" edge="1" parent="1">
          <mxGeometry relative="1" as="geometry">
            <mxPoint x="260" y="200" as="sourcePoint" />
            <mxPoint x="210" y="200" as="targetPoint" />
          </mxGeometry>
        </mxCell>
        <mxCell id="izvwOIkXbRAUqK3dt6Ee-32" value="" style="shape=message;html=1;outlineConnect=0;" vertex="1" parent="izvwOIkXbRAUqK3dt6Ee-31">
          <mxGeometry width="20" height="14" relative="1" as="geometry">
            <mxPoint x="-10" y="-7" as="offset" />
          </mxGeometry>
        </mxCell>
        <mxCell id="izvwOIkXbRAUqK3dt6Ee-34" value="ModelAndView" style="text;html=1;strokeColor=none;fillColor=none;align=center;verticalAlign=middle;whiteSpace=wrap;rounded=0;" vertex="1" parent="1">
          <mxGeometry x="210" y="215" width="60" height="30" as="geometry" />
        </mxCell>
        <mxCell id="izvwOIkXbRAUqK3dt6Ee-36" value="" style="endArrow=classic;html=1;rounded=0;entryX=0.25;entryY=0;entryDx=0;entryDy=0;" edge="1" parent="1" source="izvwOIkXbRAUqK3dt6Ee-7" target="izvwOIkXbRAUqK3dt6Ee-8">
          <mxGeometry width="50" height="50" relative="1" as="geometry">
            <mxPoint x="170" y="265" as="sourcePoint" />
            <mxPoint x="170" y="285.71067811865476" as="targetPoint" />
          </mxGeometry>
        </mxCell>
        <mxCell id="izvwOIkXbRAUqK3dt6Ee-37" value="" style="endArrow=classic;html=1;rounded=0;entryX=0.5;entryY=1;entryDx=0;entryDy=0;" edge="1" parent="1" target="izvwOIkXbRAUqK3dt6Ee-7">
          <mxGeometry width="50" height="50" relative="1" as="geometry">
            <mxPoint x="250" y="310" as="sourcePoint" />
            <mxPoint x="300" y="260" as="targetPoint" />
          </mxGeometry>
        </mxCell>
        <mxCell id="izvwOIkXbRAUqK3dt6Ee-38" value="" style="endArrow=classic;html=1;rounded=0;" edge="1" parent="1" target="izvwOIkXbRAUqK3dt6Ee-7">
          <mxGeometry width="50" height="50" relative="1" as="geometry">
            <mxPoint x="70" y="280" as="sourcePoint" />
            <mxPoint x="120" y="230" as="targetPoint" />
          </mxGeometry>
        </mxCell>
        <mxCell id="izvwOIkXbRAUqK3dt6Ee-40" value="" style="endArrow=classic;html=1;rounded=0;exitX=0.417;exitY=1.1;exitDx=0;exitDy=0;exitPerimeter=0;startArrow=none;" edge="1" parent="1" source="izvwOIkXbRAUqK3dt6Ee-43">
          <mxGeometry width="50" height="50" relative="1" as="geometry">
            <mxPoint x="160" y="230" as="sourcePoint" />
            <mxPoint x="110" y="290" as="targetPoint" />
          </mxGeometry>
        </mxCell>
        <mxCell id="izvwOIkXbRAUqK3dt6Ee-41" value="View" style="text;html=1;strokeColor=none;fillColor=none;align=center;verticalAlign=middle;whiteSpace=wrap;rounded=0;" vertex="1" parent="1">
          <mxGeometry x="220" y="245" width="60" height="30" as="geometry" />
        </mxCell>
        <mxCell id="izvwOIkXbRAUqK3dt6Ee-42" value="" style="endArrow=none;html=1;rounded=0;exitX=0.417;exitY=1.1;exitDx=0;exitDy=0;exitPerimeter=0;" edge="1" parent="1" source="izvwOIkXbRAUqK3dt6Ee-7" target="izvwOIkXbRAUqK3dt6Ee-43">
          <mxGeometry width="50" height="50" relative="1" as="geometry">
            <mxPoint x="160.03999999999996" y="221" as="sourcePoint" />
            <mxPoint x="110" y="290" as="targetPoint" />
          </mxGeometry>
        </mxCell>
        <mxCell id="izvwOIkXbRAUqK3dt6Ee-43" value="Model" style="text;html=1;strokeColor=none;fillColor=none;align=center;verticalAlign=middle;whiteSpace=wrap;rounded=0;" vertex="1" parent="1">
          <mxGeometry x="110" y="235" width="60" height="30" as="geometry" />
        </mxCell>
        <mxCell id="izvwOIkXbRAUqK3dt6Ee-44" value="" style="endArrow=classic;html=1;rounded=0;" edge="1" parent="1">
          <mxGeometry width="50" height="50" relative="1" as="geometry">
            <mxPoint x="140" y="214" as="sourcePoint" />
            <mxPoint x="50" y="214.5" as="targetPoint" />
          </mxGeometry>
        </mxCell>
        <mxCell id="izvwOIkXbRAUqK3dt6Ee-48" value="" style="endArrow=classic;html=1;rounded=0;entryX=0.25;entryY=0;entryDx=0;entryDy=0;" edge="1" parent="1" target="izvwOIkXbRAUqK3dt6Ee-7">
          <mxGeometry width="50" height="50" relative="1" as="geometry">
            <mxPoint x="30" y="120" as="sourcePoint" />
            <mxPoint x="120" y="120" as="targetPoint" />
            <Array as="points">
              <mxPoint x="90" y="120" />
            </Array>
          </mxGeometry>
        </mxCell>
        <mxCell id="izvwOIkXbRAUqK3dt6Ee-49" value="URL(ip,port),Method,Parameter" style="text;html=1;strokeColor=none;fillColor=none;align=center;verticalAlign=middle;whiteSpace=wrap;rounded=0;" vertex="1" parent="1">
          <mxGeometry x="50" y="30" width="60" height="30" as="geometry" />
        </mxCell>
        <mxCell id="izvwOIkXbRAUqK3dt6Ee-50" value="Request" style="ellipse;whiteSpace=wrap;html=1;" vertex="1" parent="1">
          <mxGeometry x="10" y="80" width="60" height="60" as="geometry" />
        </mxCell>
        <mxCell id="izvwOIkXbRAUqK3dt6Ee-51" value="Response" style="ellipse;whiteSpace=wrap;html=1;" vertex="1" parent="1">
          <mxGeometry x="80" y="80" width="60" height="60" as="geometry" />
        </mxCell>
        <mxCell id="izvwOIkXbRAUqK3dt6Ee-56" value="prefix+ViewName+suffix" style="text;html=1;strokeColor=none;fillColor=none;align=center;verticalAlign=middle;whiteSpace=wrap;rounded=0;" vertex="1" parent="1">
          <mxGeometry x="414" y="300" width="60" height="30" as="geometry" />
        </mxCell>
        <mxCell id="izvwOIkXbRAUqK3dt6Ee-57" value="Fowarding, Redirect" style="text;html=1;strokeColor=none;fillColor=none;align=center;verticalAlign=middle;whiteSpace=wrap;rounded=0;" vertex="1" parent="1">
          <mxGeometry x="170" y="60" width="60" height="30" as="geometry" />
        </mxCell>
        <mxCell id="izvwOIkXbRAUqK3dt6Ee-58" value="Redirect" style="endArrow=classic;html=1;rounded=0;" edge="1" parent="1">
          <mxGeometry width="50" height="50" relative="1" as="geometry">
            <mxPoint x="115" y="184.5" as="sourcePoint" />
            <mxPoint x="45" y="184.5" as="targetPoint" />
          </mxGeometry>
        </mxCell>
      </root>
    </mxGraphModel>
  </diagram>
  <diagram id="LkeqksZuPbhHzkPLKeEH" name="페이지-2">
    <mxGraphModel dx="1434" dy="739" grid="1" gridSize="10" guides="1" tooltips="1" connect="1" arrows="1" fold="1" page="1" pageScale="2" pageWidth="1169" pageHeight="827" math="0" shadow="0">
      <root>
        <mxCell id="0" />
        <mxCell id="1" parent="0" />
        <mxCell id="gcbML8Svo6F7yfcDoyD4-1" value="ProductDAO" style="swimlane;fontStyle=1;align=center;verticalAlign=top;childLayout=stackLayout;horizontal=1;startSize=26;horizontalStack=0;resizeParent=1;resizeParentMax=0;resizeLast=0;collapsible=1;marginBottom=0;" vertex="1" parent="1">
          <mxGeometry x="880" y="115" width="300" height="170" as="geometry" />
        </mxCell>
        <mxCell id="gcbML8Svo6F7yfcDoyD4-2" value="- sqlSession: SqlSession&#xa;- NAMESPACE: String" style="text;strokeColor=none;fillColor=none;align=left;verticalAlign=top;spacingLeft=4;spacingRight=4;overflow=hidden;rotatable=0;points=[[0,0.5],[1,0.5]];portConstraint=eastwest;" vertex="1" parent="gcbML8Svo6F7yfcDoyD4-1">
          <mxGeometry y="26" width="300" height="44" as="geometry" />
        </mxCell>
        <mxCell id="gcbML8Svo6F7yfcDoyD4-3" value="" style="line;strokeWidth=1;fillColor=none;align=left;verticalAlign=middle;spacingTop=-1;spacingLeft=3;spacingRight=3;rotatable=0;labelPosition=right;points=[];portConstraint=eastwest;strokeColor=inherit;" vertex="1" parent="gcbML8Svo6F7yfcDoyD4-1">
          <mxGeometry y="70" width="300" height="8" as="geometry" />
        </mxCell>
        <mxCell id="gcbML8Svo6F7yfcDoyD4-4" value="+ getProductList(): List&lt;ProductDTO)&#xa;+ getProductDetail(ProductDTO): ProductDTO&#xa;+ setProductAdd(ProductDTO) : int " style="text;strokeColor=none;fillColor=none;align=left;verticalAlign=top;spacingLeft=4;spacingRight=4;overflow=hidden;rotatable=0;points=[[0,0.5],[1,0.5]];portConstraint=eastwest;" vertex="1" parent="gcbML8Svo6F7yfcDoyD4-1">
          <mxGeometry y="78" width="300" height="92" as="geometry" />
        </mxCell>
        <mxCell id="gcbML8Svo6F7yfcDoyD4-5" value="Product" style="text;html=1;strokeColor=none;fillColor=none;align=center;verticalAlign=middle;whiteSpace=wrap;rounded=0;spacing=2;fontSize=20;" vertex="1" parent="1">
          <mxGeometry x="590" y="70" width="60" height="30" as="geometry" />
        </mxCell>
        <mxCell id="gcbML8Svo6F7yfcDoyD4-6" value="ProductService" style="swimlane;fontStyle=1;align=center;verticalAlign=top;childLayout=stackLayout;horizontal=1;startSize=26;horizontalStack=0;resizeParent=1;resizeParentMax=0;resizeLast=0;collapsible=1;marginBottom=0;" vertex="1" parent="1">
          <mxGeometry x="480" y="115" width="340" height="170" as="geometry" />
        </mxCell>
        <mxCell id="gcbML8Svo6F7yfcDoyD4-7" value="-productDAO: ProductDAO" style="text;strokeColor=none;fillColor=none;align=left;verticalAlign=top;spacingLeft=4;spacingRight=4;overflow=hidden;rotatable=0;points=[[0,0.5],[1,0.5]];portConstraint=eastwest;" vertex="1" parent="gcbML8Svo6F7yfcDoyD4-6">
          <mxGeometry y="26" width="340" height="26" as="geometry" />
        </mxCell>
        <mxCell id="gcbML8Svo6F7yfcDoyD4-8" value="" style="line;strokeWidth=1;fillColor=none;align=left;verticalAlign=middle;spacingTop=-1;spacingLeft=3;spacingRight=3;rotatable=0;labelPosition=right;points=[];portConstraint=eastwest;strokeColor=inherit;" vertex="1" parent="gcbML8Svo6F7yfcDoyD4-6">
          <mxGeometry y="52" width="340" height="8" as="geometry" />
        </mxCell>
        <mxCell id="gcbML8Svo6F7yfcDoyD4-9" value="+ getProductList(): List&lt;ProductDTO)&#xa;+ getProductDetail(ProductDTO): ProductDTO&#xa;+ setProductAdd(ProductDTO, List&lt;ProductOptionDTO) : int " style="text;strokeColor=none;fillColor=none;align=left;verticalAlign=top;spacingLeft=4;spacingRight=4;overflow=hidden;rotatable=0;points=[[0,0.5],[1,0.5]];portConstraint=eastwest;" vertex="1" parent="gcbML8Svo6F7yfcDoyD4-6">
          <mxGeometry y="60" width="340" height="110" as="geometry" />
        </mxCell>
        <mxCell id="gcbML8Svo6F7yfcDoyD4-12" value="ProductController" style="swimlane;fontStyle=1;align=center;verticalAlign=top;childLayout=stackLayout;horizontal=1;startSize=26;horizontalStack=0;resizeParent=1;resizeParentMax=0;resizeLast=0;collapsible=1;marginBottom=0;" vertex="1" parent="1">
          <mxGeometry x="80" y="115" width="340" height="170" as="geometry" />
        </mxCell>
        <mxCell id="gcbML8Svo6F7yfcDoyD4-13" value="-productService : ProductService" style="text;strokeColor=none;fillColor=none;align=left;verticalAlign=top;spacingLeft=4;spacingRight=4;overflow=hidden;rotatable=0;points=[[0,0.5],[1,0.5]];portConstraint=eastwest;" vertex="1" parent="gcbML8Svo6F7yfcDoyD4-12">
          <mxGeometry y="26" width="340" height="26" as="geometry" />
        </mxCell>
        <mxCell id="gcbML8Svo6F7yfcDoyD4-14" value="" style="line;strokeWidth=1;fillColor=none;align=left;verticalAlign=middle;spacingTop=-1;spacingLeft=3;spacingRight=3;rotatable=0;labelPosition=right;points=[];portConstraint=eastwest;strokeColor=inherit;" vertex="1" parent="gcbML8Svo6F7yfcDoyD4-12">
          <mxGeometry y="52" width="340" height="8" as="geometry" />
        </mxCell>
        <mxCell id="gcbML8Svo6F7yfcDoyD4-15" value="+ getProductList(): ModelAndView&#xa;+ getProductDetail(ProductDTO): String&#xa;+ setProductAdd(ProductDTO) : String&#xa;+ setProductAdd() : void" style="text;strokeColor=none;fillColor=none;align=left;verticalAlign=top;spacingLeft=4;spacingRight=4;overflow=hidden;rotatable=0;points=[[0,0.5],[1,0.5]];portConstraint=eastwest;" vertex="1" parent="gcbML8Svo6F7yfcDoyD4-12">
          <mxGeometry y="60" width="340" height="110" as="geometry" />
        </mxCell>
        <mxCell id="gcbML8Svo6F7yfcDoyD4-16" value="" style="edgeStyle=orthogonalEdgeStyle;rounded=0;orthogonalLoop=1;jettySize=auto;html=1;" edge="1" parent="1" source="gcbML8Svo6F7yfcDoyD4-15" target="gcbML8Svo6F7yfcDoyD4-9">
          <mxGeometry relative="1" as="geometry" />
        </mxCell>
        <mxCell id="gcbML8Svo6F7yfcDoyD4-17" value="" style="edgeStyle=orthogonalEdgeStyle;rounded=0;orthogonalLoop=1;jettySize=auto;html=1;" edge="1" parent="1" source="gcbML8Svo6F7yfcDoyD4-9" target="gcbML8Svo6F7yfcDoyD4-4">
          <mxGeometry relative="1" as="geometry">
            <Array as="points">
              <mxPoint x="830" y="239" />
              <mxPoint x="830" y="239" />
            </Array>
          </mxGeometry>
        </mxCell>
        <mxCell id="gcbML8Svo6F7yfcDoyD4-18" value="의존적" style="text;html=1;strokeColor=none;fillColor=none;align=center;verticalAlign=middle;whiteSpace=wrap;rounded=0;" vertex="1" parent="1">
          <mxGeometry x="420" y="230" width="60" height="30" as="geometry" />
        </mxCell>
        <mxCell id="gcbML8Svo6F7yfcDoyD4-19" value="의존적" style="text;html=1;strokeColor=none;fillColor=none;align=center;verticalAlign=middle;whiteSpace=wrap;rounded=0;" vertex="1" parent="1">
          <mxGeometry x="820" y="240" width="60" height="30" as="geometry" />
        </mxCell>
      </root>
    </mxGraphModel>
  </diagram>
  <diagram id="RWwuXJSHL9ARMaYZrQMH" name="페이지-3">
    <mxGraphModel dx="1434" dy="796" grid="1" gridSize="10" guides="1" tooltips="1" connect="1" arrows="1" fold="1" page="1" pageScale="1" pageWidth="1169" pageHeight="827" math="0" shadow="0">
      <root>
        <mxCell id="0" />
        <mxCell id="1" parent="0" />
        <mxCell id="5L7tQFzt1TdaD4K7pRKD-1" value="Member" style="text;html=1;strokeColor=none;fillColor=none;align=center;verticalAlign=middle;whiteSpace=wrap;rounded=0;fontSize=20;" vertex="1" parent="1">
          <mxGeometry x="540" y="170" width="60" height="30" as="geometry" />
        </mxCell>
        <mxCell id="5L7tQFzt1TdaD4K7pRKD-2" value="MemberDAO" style="swimlane;fontStyle=1;align=center;verticalAlign=top;childLayout=stackLayout;horizontal=1;startSize=26;horizontalStack=0;resizeParent=1;resizeParentMax=0;resizeLast=0;collapsible=1;marginBottom=0;" vertex="1" parent="1">
          <mxGeometry x="850" y="220" width="250" height="130" as="geometry" />
        </mxCell>
        <mxCell id="5L7tQFzt1TdaD4K7pRKD-3" value="-sqlSession: SqlSession&#xa;-NAMESPACE: String" style="text;strokeColor=none;fillColor=none;align=left;verticalAlign=top;spacingLeft=4;spacingRight=4;overflow=hidden;rotatable=0;points=[[0,0.5],[1,0.5]];portConstraint=eastwest;" vertex="1" parent="5L7tQFzt1TdaD4K7pRKD-2">
          <mxGeometry y="26" width="250" height="44" as="geometry" />
        </mxCell>
        <mxCell id="5L7tQFzt1TdaD4K7pRKD-4" value="" style="line;strokeWidth=1;fillColor=none;align=left;verticalAlign=middle;spacingTop=-1;spacingLeft=3;spacingRight=3;rotatable=0;labelPosition=right;points=[];portConstraint=eastwest;strokeColor=inherit;" vertex="1" parent="5L7tQFzt1TdaD4K7pRKD-2">
          <mxGeometry y="70" width="250" height="8" as="geometry" />
        </mxCell>
        <mxCell id="5L7tQFzt1TdaD4K7pRKD-5" value="+memberJoin(MemberDTO) : int&#xa;" style="text;strokeColor=none;fillColor=none;align=left;verticalAlign=top;spacingLeft=4;spacingRight=4;overflow=hidden;rotatable=0;points=[[0,0.5],[1,0.5]];portConstraint=eastwest;" vertex="1" parent="5L7tQFzt1TdaD4K7pRKD-2">
          <mxGeometry y="78" width="250" height="52" as="geometry" />
        </mxCell>
        <mxCell id="5L7tQFzt1TdaD4K7pRKD-6" value="MemberService" style="swimlane;fontStyle=1;align=center;verticalAlign=top;childLayout=stackLayout;horizontal=1;startSize=26;horizontalStack=0;resizeParent=1;resizeParentMax=0;resizeLast=0;collapsible=1;marginBottom=0;" vertex="1" parent="1">
          <mxGeometry x="450" y="230" width="260" height="110" as="geometry" />
        </mxCell>
        <mxCell id="5L7tQFzt1TdaD4K7pRKD-7" value="- memberDAO : MemberDAO" style="text;strokeColor=none;fillColor=none;align=left;verticalAlign=top;spacingLeft=4;spacingRight=4;overflow=hidden;rotatable=0;points=[[0,0.5],[1,0.5]];portConstraint=eastwest;" vertex="1" parent="5L7tQFzt1TdaD4K7pRKD-6">
          <mxGeometry y="26" width="260" height="34" as="geometry" />
        </mxCell>
        <mxCell id="5L7tQFzt1TdaD4K7pRKD-8" value="" style="line;strokeWidth=1;fillColor=none;align=left;verticalAlign=middle;spacingTop=-1;spacingLeft=3;spacingRight=3;rotatable=0;labelPosition=right;points=[];portConstraint=eastwest;strokeColor=inherit;" vertex="1" parent="5L7tQFzt1TdaD4K7pRKD-6">
          <mxGeometry y="60" width="260" height="8" as="geometry" />
        </mxCell>
        <mxCell id="5L7tQFzt1TdaD4K7pRKD-9" value="+ memberJoin(MemberDTO) : int" style="text;strokeColor=none;fillColor=none;align=left;verticalAlign=top;spacingLeft=4;spacingRight=4;overflow=hidden;rotatable=0;points=[[0,0.5],[1,0.5]];portConstraint=eastwest;" vertex="1" parent="5L7tQFzt1TdaD4K7pRKD-6">
          <mxGeometry y="68" width="260" height="42" as="geometry" />
        </mxCell>
        <mxCell id="5L7tQFzt1TdaD4K7pRKD-10" value="MemberController" style="swimlane;fontStyle=1;align=center;verticalAlign=top;childLayout=stackLayout;horizontal=1;startSize=26;horizontalStack=0;resizeParent=1;resizeParentMax=0;resizeLast=0;collapsible=1;marginBottom=0;" vertex="1" parent="1">
          <mxGeometry x="110" y="242" width="230" height="86" as="geometry" />
        </mxCell>
        <mxCell id="5L7tQFzt1TdaD4K7pRKD-11" value="- memberService : MemberService" style="text;strokeColor=none;fillColor=none;align=left;verticalAlign=top;spacingLeft=4;spacingRight=4;overflow=hidden;rotatable=0;points=[[0,0.5],[1,0.5]];portConstraint=eastwest;" vertex="1" parent="5L7tQFzt1TdaD4K7pRKD-10">
          <mxGeometry y="26" width="230" height="26" as="geometry" />
        </mxCell>
        <mxCell id="5L7tQFzt1TdaD4K7pRKD-12" value="" style="line;strokeWidth=1;fillColor=none;align=left;verticalAlign=middle;spacingTop=-1;spacingLeft=3;spacingRight=3;rotatable=0;labelPosition=right;points=[];portConstraint=eastwest;strokeColor=inherit;" vertex="1" parent="5L7tQFzt1TdaD4K7pRKD-10">
          <mxGeometry y="52" width="230" height="8" as="geometry" />
        </mxCell>
        <mxCell id="5L7tQFzt1TdaD4K7pRKD-13" value="- memberJoin : ModelAndView" style="text;strokeColor=none;fillColor=none;align=left;verticalAlign=top;spacingLeft=4;spacingRight=4;overflow=hidden;rotatable=0;points=[[0,0.5],[1,0.5]];portConstraint=eastwest;" vertex="1" parent="5L7tQFzt1TdaD4K7pRKD-10">
          <mxGeometry y="60" width="230" height="26" as="geometry" />
        </mxCell>
        <mxCell id="5L7tQFzt1TdaD4K7pRKD-14" style="edgeStyle=orthogonalEdgeStyle;rounded=0;orthogonalLoop=1;jettySize=auto;html=1;exitX=1;exitY=0.5;exitDx=0;exitDy=0;entryX=0.004;entryY=0.392;entryDx=0;entryDy=0;entryPerimeter=0;fontSize=20;" edge="1" parent="1" source="5L7tQFzt1TdaD4K7pRKD-13" target="5L7tQFzt1TdaD4K7pRKD-9">
          <mxGeometry relative="1" as="geometry" />
        </mxCell>
        <mxCell id="5L7tQFzt1TdaD4K7pRKD-15" style="edgeStyle=orthogonalEdgeStyle;rounded=0;orthogonalLoop=1;jettySize=auto;html=1;exitX=1;exitY=0.5;exitDx=0;exitDy=0;fontSize=20;" edge="1" parent="1" source="5L7tQFzt1TdaD4K7pRKD-9">
          <mxGeometry relative="1" as="geometry">
            <mxPoint x="840" y="320" as="targetPoint" />
          </mxGeometry>
        </mxCell>
      </root>
    </mxGraphModel>
  </diagram>
</mxfile>
